<svg width="57" height="57" viewBox="0 0 57 57" fill="none" xmlns="http://www.w3.org/2000/svg">
<g clip-path="url(#clip0_35_448)">
<path d="M31.9454 8.38293L28.046 8.37772C27.3416 8.37764 26.3906 8.305 25.7204 8.44939C25.3984 8.51741 25.1026 8.67592 24.8676 8.90628C24.5111 9.2549 24.3199 9.76662 24.3188 10.2614C24.3176 10.7842 24.5114 11.2889 24.8832 11.6596C25.1173 11.8929 25.3973 12.0471 25.7218 12.1138C26.3491 12.2428 27.2464 12.1702 27.9019 12.1704C29.4016 12.1707 30.9076 12.1445 32.4062 12.1932C32.3104 11.9256 32.1556 11.6699 32.0514 11.4016C31.6656 10.4083 31.6683 9.40497 31.9454 8.38293Z" fill="#9F0A48"/>
<path d="M38.7201 5.40579C37.8664 5.25057 35.9309 5.20879 35.1006 5.40707C34.5373 5.54711 34.0045 5.78929 33.5287 6.1216C32.8968 6.55946 32.4403 7.18153 32.1283 7.87588C32.0558 8.03717 32.0165 8.22367 31.9402 8.37767C31.6631 9.39971 31.6603 10.4031 32.0462 11.3964C32.1504 11.6646 32.3051 11.9204 32.401 12.188C32.6997 12.6536 32.9605 12.8405 33.309 13.2277C33.7961 13.0271 34.3209 12.89 34.8304 13.1074C35.1037 13.2239 35.32 13.4163 35.519 13.6321C36.5874 13.6012 37.6637 13.6604 38.7299 13.5934C38.8625 13.585 38.9242 13.5747 39.0312 13.4916C38.6224 13.4211 38.1826 13.072 37.912 12.7735C37.0334 11.8041 36.6964 10.3213 36.7647 9.04519C36.8207 7.99865 37.1963 6.79478 37.9519 6.03941C38.1833 5.8081 38.4612 5.64122 38.7014 5.42307L38.7201 5.40579Z" fill="#F85293"/>
<path d="M39.1573 13.5549C39.4445 13.5897 39.7347 13.5929 40.0225 13.5643C40.995 13.4584 41.856 12.8986 42.4526 12.1398C43.1378 11.2685 43.4809 10.1113 43.3461 9.00638C43.2022 7.82655 42.684 6.77539 41.7374 6.03559C41.1676 5.59028 40.3957 5.27469 39.6633 5.2981C39.3518 5.30806 39.0348 5.37416 38.725 5.4124L38.7064 5.42969C38.4662 5.64783 38.1883 5.81471 37.9569 6.04603C37.2013 6.80139 36.8257 8.00526 36.7697 9.0518C36.7013 10.3279 37.0384 11.8107 37.9169 12.7801C38.1875 13.0787 38.6273 13.4277 39.0362 13.4982L39.1573 13.5549Z" fill="#111111"/>
<path d="M24.7931 25.6218C25.102 25.5998 25.4138 25.6324 25.7224 25.6042C26.0453 25.5745 26.3591 25.4809 26.6454 25.3287C26.9317 25.1765 27.1849 24.9688 27.3901 24.7177C27.927 24.0618 27.9161 23.4025 27.9128 22.5963C27.9114 22.2693 27.9239 21.9339 27.8916 21.6085C27.8265 20.9555 27.5262 20.3725 27.0135 19.957C26.6448 19.6582 26.2059 19.5038 25.7372 19.4542C25.3826 19.4167 25.0191 19.433 24.6629 19.4345L23.1413 19.4376L17.8075 19.4385L13.0199 19.439L11.5142 19.4355C11.2189 19.4349 10.9108 19.4199 10.6174 19.4518C10.0037 19.5185 9.39726 19.8314 9.00956 20.3151C8.46378 20.9964 8.45403 21.7287 8.4571 22.5587C8.45821 22.8784 8.45014 23.2037 8.48576 23.5217C8.57149 24.2861 8.95696 24.7839 9.54171 25.2547C9.81502 25.3559 10.0739 25.5149 10.3636 25.5644C10.7986 25.6387 11.2687 25.6106 11.7093 25.6102L13.643 25.6082L21.2225 25.6092L23.5401 25.6067C23.9512 25.6062 24.3854 25.5792 24.7931 25.6218Z" fill="#111111"/>
<path d="M7.83963 40.8101C6.97183 40.3968 6.11961 39.9487 5.2571 39.5242C4.85493 39.3264 4.43494 39.0862 4.00744 38.9531C3.74554 39.475 3.41545 39.9515 3.17276 40.4861C2.33153 42.335 2.21298 44.4318 2.84044 46.3637C3.18086 47.3798 3.71808 48.319 4.42146 49.1275C5.12483 49.9361 5.98058 50.5981 6.93983 51.0759C7.90535 51.5542 8.95622 51.8359 10.0315 51.9049C11.1068 51.9738 12.185 51.8286 13.2037 51.4775C15.2868 50.7556 17.0017 49.2421 17.9769 47.2649C18.1016 47.008 18.206 46.7519 18.2975 46.4814C18.3732 46.2571 18.4333 45.9643 18.5547 45.7639C18.41 45.6328 17.2761 45.4269 16.9761 45.3203C16.1943 45.0419 15.4486 44.5835 14.6947 44.2315C14.0707 43.8415 13.3314 43.5443 12.6574 43.2476C12.3718 42.9843 10.315 42.0344 9.82044 41.8109C9.76506 41.8076 9.78231 41.8156 9.73917 41.79C9.12742 41.4268 8.46251 41.1555 7.83963 40.8101Z" fill="#111111"/>
<path d="M7.84029 40.8047C7.03622 41.5125 6.49043 42.518 6.42336 43.5954C6.38972 44.1359 6.46393 44.6777 6.64168 45.1893C6.81943 45.7008 7.09716 46.1719 7.45871 46.5751C7.8213 46.9838 8.26211 47.3157 8.7551 47.5511C9.24809 47.7866 9.78327 47.9209 10.329 47.9461C10.8854 47.9724 11.4415 47.887 11.9644 47.695C12.4873 47.503 12.9664 47.2082 13.3736 46.8281C14.0042 46.2489 14.395 45.5484 14.6029 44.7218C14.6441 44.5578 14.655 44.387 14.6953 44.2261C14.0713 43.8362 13.3321 43.5389 12.658 43.2422C12.3725 42.9789 10.3157 42.029 9.82109 41.8055C9.76571 41.8022 9.78296 41.8103 9.73982 41.7847C9.12807 41.4214 8.46317 41.1501 7.84029 40.8047Z" fill="#BEC7D2"/>
<path d="M9.82307 41.8125C9.21828 42.0866 8.7635 42.4607 8.51914 43.0958C8.3193 43.6152 8.34602 44.2523 8.57536 44.7574C8.82395 45.298 9.2769 45.7178 9.83476 45.9247C10.0985 46.0179 10.3782 46.0574 10.6574 46.0409C10.9367 46.0244 11.2098 45.9522 11.4607 45.8287C12.0025 45.564 12.4178 45.0961 12.6163 44.5267C12.7738 44.0688 12.6951 43.7145 12.66 43.2492C12.3744 42.9859 10.3176 42.036 9.82307 41.8125Z" fill="#111111"/>
<path d="M35.5236 13.6352C35.3246 13.4194 35.1083 13.227 34.835 13.1105C34.3255 12.8932 33.8006 13.0303 33.3136 13.2308C32.882 13.5449 32.5973 13.9896 32.5184 14.5203C32.4756 14.8076 32.497 15.1078 32.5597 15.3905C32.7297 16.1572 33.0483 16.9287 33.3017 17.6723C33.8576 19.304 34.4446 20.9295 34.9063 22.5915C36.094 26.8668 35.7421 31.5364 33.5061 35.4131C32.739 36.7429 31.8007 37.9227 30.5717 38.852C29.4537 39.6975 27.9886 40.203 26.5808 40.0087C25.4862 39.8573 24.2905 39.2765 23.4697 38.5364C23.2059 38.5542 22.9412 38.3764 22.6721 38.3558C22.3579 38.3318 22.0177 38.5183 21.7904 38.7262C21.6519 38.8533 21.541 39.0076 21.4647 39.1794C21.3884 39.3512 21.3482 39.5368 21.3467 39.7248C21.3425 40.1782 21.5744 40.6132 21.8878 40.9288C22.1694 41.2127 22.5254 41.4382 22.8686 41.6388C24.2432 42.4346 25.8044 42.8511 27.3927 42.8459C30.0424 42.8456 32.3732 41.6745 34.2577 39.8696C34.5002 39.6374 34.7277 39.3986 34.9449 39.1426C35.103 38.9564 35.2557 38.7465 35.4294 38.5768L35.4672 38.54C35.7652 38.0616 36.119 37.6174 36.4159 37.1345C37.3507 35.5884 38.0481 33.9107 38.4849 32.1576C39.2991 28.9073 39.1777 25.4636 38.3721 22.2249C37.9437 20.5026 37.3566 18.8354 36.7899 17.1558L36.2088 15.4218C36.0108 14.8162 35.8534 14.1854 35.5236 13.6352Z" fill="#EA2D75"/>
<path d="M39.1593 13.5489L39.0382 13.4922C38.9312 13.5753 38.8695 13.5856 38.7369 13.594C37.6707 13.661 36.5944 13.6018 35.526 13.6327C35.8558 14.1828 36.0132 14.8137 36.2112 15.4193L36.7923 17.1533C37.3591 18.8329 37.9461 20.5001 38.3745 22.2224C39.1801 25.461 39.3015 28.9048 38.4873 32.155C38.0506 33.9082 37.3531 35.5859 36.4183 37.132C36.1215 37.6148 35.7676 38.059 35.4697 38.5375C36.1291 39.1425 36.6804 39.6669 37.5128 40.0499C37.8048 40.184 38.1642 40.2444 38.436 40.4033C39.163 39.0557 40.0825 37.8726 41.4016 37.056C42.1188 36.6121 42.8879 36.2536 43.7037 36.0334C45.2675 35.6118 47.1439 35.6972 48.6493 36.2784C48.9411 36.3911 49.2327 36.5146 49.5123 36.6549C49.7208 36.7596 50.2127 37.1008 50.4019 37.1328C50.4124 37.1345 50.4232 37.1339 50.4338 37.1347C50.6184 37.034 54.5681 37.0936 55.0794 37.0952C55.5599 37.0969 56.1193 37.1534 56.5886 37.0585C56.6852 37.039 56.7334 37.0195 56.7897 36.9383C56.818 36.7593 56.7573 36.5959 56.6966 36.4298C55.3757 32.8199 51.8045 30.034 48.1195 29.184C47.7188 29.0902 47.3136 29.0172 46.9055 28.9652C46.4916 28.9168 45.6007 28.9271 45.2526 28.7618C45.2446 28.7579 45.2367 28.754 45.2288 28.7501C45.4349 28.5594 45.6739 28.3387 45.8011 28.0866C45.961 27.7693 45.9792 27.4262 45.8705 27.0905C45.7282 26.6513 44.8848 25.104 44.595 24.7306C44.4681 24.5671 44.3033 24.3994 44.1162 24.3089C43.6717 24.0939 43.2335 24.1763 42.7919 24.3339C42.6556 23.8981 42.5351 23.4576 42.3932 23.0235C41.7366 21.0143 41.0036 19.0238 40.3133 17.0254L39.6436 15.0987C39.467 14.5889 39.2786 14.0758 39.1593 13.5489Z" fill="#F966AC"/>
<path d="M45.227 28.7509C45.4332 28.5603 45.6722 28.3396 45.7994 28.0874C45.9593 27.7701 45.9775 27.427 45.8688 27.0913C45.7265 26.6522 44.8831 25.1049 44.5932 24.7314C44.4664 24.568 44.3016 24.4002 44.1145 24.3097C43.67 24.0947 43.2318 24.1772 42.7902 24.3348C42.3461 24.563 41.5021 24.9351 41.1826 25.3095C41.082 25.4274 41.0095 25.5852 40.9614 25.7317C40.7992 26.2257 40.954 26.6416 41.1839 27.076C41.4486 27.576 42.0228 28.7312 42.3961 29.0838C42.5482 29.2274 42.7659 29.3259 42.9652 29.3863C43.4449 29.5319 43.8234 29.4751 44.2613 29.2391C44.5408 29.0885 44.916 28.7924 45.227 28.7509Z" fill="#FEC207"/>
<path d="M50.4287 37.1385C50.4181 37.1377 50.4073 37.1383 50.3968 37.1366C50.2076 37.1046 49.7157 36.7634 49.5072 36.6587C49.2276 36.5184 48.936 36.3949 48.6442 36.2821C47.1388 35.701 45.2624 35.6156 43.6986 36.0372C42.8828 36.2574 42.1137 36.6158 41.3965 37.0598C40.0774 37.8764 39.1579 39.0595 38.4309 40.4071C38.3565 40.5814 38.2774 40.7531 38.1725 40.9117C38.0929 41.2552 37.9696 41.5908 37.8842 41.934C37.7237 42.578 37.6527 43.3056 37.6645 43.9677C37.6792 45.0341 37.9074 46.0867 38.3356 47.0635C38.7638 48.0403 39.3834 48.9214 40.1576 49.6549C41.7024 51.1289 43.8341 51.9891 45.977 51.9232C47.0754 51.8926 48.1569 51.6448 49.1591 51.1941C50.1612 50.7435 51.0642 50.0989 51.816 49.2975C53.2114 47.796 54.029 45.713 53.9476 43.6551C53.8707 41.7133 53.1413 39.7767 51.7967 38.3545C51.3735 37.907 50.8772 37.556 50.4287 37.1385Z" fill="#111111"/>
<path d="M46.2342 39.7816C45.1986 39.6427 44.1204 39.9706 43.2959 40.5946C42.4254 41.2533 41.8446 42.203 41.7 43.2901C41.625 43.8244 41.6576 44.3683 41.796 44.8898C41.9343 45.4113 42.1755 45.8999 42.5055 46.3268C42.8439 46.7638 43.2654 47.1294 43.7457 47.4028C44.226 47.6761 44.7557 47.8517 45.3042 47.9194C46.426 48.0304 47.4781 47.7607 48.3699 47.0572C48.7951 46.7247 49.1503 46.3113 49.415 45.8409C49.6796 45.3705 49.8485 44.8523 49.912 44.3163C50.0368 43.2197 49.6982 42.1593 49.0156 41.3004C48.6749 40.8764 48.2538 40.524 47.7764 40.2634C47.2991 40.0027 46.775 39.839 46.2342 39.7816Z" fill="#BEC7D2"/>
<path d="M45.9973 41.7033C45.4953 41.6649 45.0106 41.7621 44.5867 42.0435C44.1118 42.363 43.7809 42.856 43.6652 43.4167C43.5527 43.9877 43.6709 44.5799 43.9938 45.0641C44.367 45.6185 44.891 45.9115 45.537 46.0346C46.1053 46.0641 46.6139 45.9539 47.0786 45.6126C47.533 45.2789 47.8649 44.7579 47.9453 44.1974C47.9879 43.9076 47.9723 43.6122 47.8993 43.3286C47.8263 43.045 47.6974 42.7787 47.5202 42.5455C47.1488 42.051 46.5996 41.7874 45.9973 41.7033Z" fill="#111111"/>
<path d="M24.7934 25.6171C24.3857 25.5745 23.9515 25.6015 23.5404 25.602L21.2228 25.6046L13.6433 25.6035L11.7096 25.6055C11.269 25.6059 10.7989 25.634 10.3639 25.5597C10.0742 25.5102 9.81532 25.3512 9.54201 25.25C9.31407 25.5039 8.68674 25.7456 8.36806 25.9149C8.06441 26.0762 7.76828 26.2435 7.47799 26.428C6.69062 26.9292 5.9848 27.4794 5.29624 28.1077C4.90659 27.9288 4.50469 27.8731 4.09389 28.0329C3.90714 28.1055 3.77828 28.2065 3.64803 28.3574C3.37165 28.678 3.16736 29.0949 2.94248 29.454C2.63104 29.9519 2.23944 30.4637 2.01178 31.0053C1.8395 31.415 1.92884 31.8119 2.07774 32.2071C1.48241 33.0151 1.01094 33.9436 0.638546 34.874C0.505508 35.2066 0.130333 36.4281 -0.00298309 36.5987V36.9547C0.973366 37.4882 1.9909 37.9834 3.00121 38.4501L4.00344 38.948C4.43093 39.0811 4.85092 39.3213 5.25309 39.5191C6.11561 39.9436 6.96783 40.3917 7.83563 40.805C8.45851 41.1504 9.12342 41.4217 9.73517 41.785C9.77831 41.8106 9.76105 41.8025 9.81644 41.8058C10.311 42.0293 12.3678 42.9792 12.6534 43.2425C13.3274 43.5392 14.0667 43.8365 14.6907 44.2264C15.4446 44.5785 16.1903 45.0368 16.9721 45.3152C17.2721 45.4218 18.406 45.6277 18.5507 45.7588C19.2139 45.7482 19.8819 45.7711 20.546 45.7708L25.9746 45.7697C27.6106 45.7702 29.2768 45.8696 30.888 45.5314C32.4221 45.2097 33.8399 44.5659 35.1335 43.687C35.8961 43.1693 36.606 42.5347 37.2492 41.8762C37.5456 41.5726 37.8144 41.1763 38.1521 40.9219C38.1584 40.9172 38.1649 40.9127 38.1713 40.908C38.2762 40.7493 38.3553 40.5776 38.4297 40.4034C38.1579 40.2445 37.7984 40.1841 37.5065 40.0499C36.674 39.6669 36.1227 39.1426 35.4633 38.5375L35.4254 38.5743C35.2517 38.744 35.0991 38.9539 34.941 39.1401C34.7238 39.3961 34.4963 39.6349 34.2538 39.8671C32.3692 41.672 30.0384 42.8431 27.3887 42.8434C25.8005 42.8486 24.2392 42.4321 22.8646 41.6363C22.5215 41.4357 22.1655 41.2102 21.8839 40.9263C21.5705 40.6107 21.3386 40.1757 21.3428 39.7223C21.3443 39.5343 21.3845 39.3487 21.4608 39.1769C21.5371 39.0051 21.648 38.8508 21.7864 38.7237C22.0138 38.5158 22.3539 38.3293 22.6682 38.3533C22.9373 38.3739 23.202 38.5517 23.4658 38.5339C23.1065 38.0221 22.7414 37.5269 22.4828 36.9533C21.6331 35.0688 21.9108 32.6856 22.4753 30.759C22.6704 30.093 22.9276 29.4562 23.1702 28.8077C23.4288 28.2305 23.6954 27.6505 23.9977 27.0947C24.2624 26.6081 24.5808 26.1282 24.7934 25.6171Z" fill="#F85293"/>
<path d="M15.8412 29.9877C15.6495 29.9729 15.4549 29.9751 15.2632 29.9813C12.62 30.0653 9.98121 31.2869 8.18382 33.2279C7.61243 33.8446 6.53867 35.1722 6.58459 36.013C6.61146 36.4497 6.80997 36.858 7.13678 37.1489C7.42985 37.4135 7.88379 37.5379 8.27622 37.5112C9.10088 37.4553 9.42095 36.8238 9.82424 36.219C9.97147 35.9983 10.1332 35.7937 10.3082 35.5947C10.571 35.2616 10.91 34.964 11.2412 34.7013C12.5585 33.6576 14.225 33.0417 15.9158 33.1797C16.4043 33.2195 16.881 33.3091 17.3314 33.5068C17.8296 33.7252 18.269 34.2154 18.819 34.2696C19.173 34.3047 19.6194 34.1043 19.885 33.8769C20.2192 33.5905 20.4274 33.1923 20.4566 32.7508C20.4886 32.2685 20.3422 31.8215 20.0197 31.4605C19.102 30.4324 17.1496 30.0586 15.8412 29.9877Z" fill="#EA2D75"/>
<path d="M24.7969 25.6171C24.3891 25.5745 23.955 25.6015 23.5439 25.602L21.2263 25.6046L13.6468 25.6035L11.713 25.6055C11.2725 25.6059 10.8024 25.634 10.3674 25.5597C10.0776 25.5102 9.81879 25.3512 9.54548 25.25C9.31753 25.5039 8.6902 25.7456 8.37152 25.9149C8.06787 26.0762 7.77174 26.2435 7.48145 26.428C6.69409 26.9292 5.98827 27.4794 5.2997 28.1077C4.91005 27.9288 4.50816 27.8731 4.09735 28.0329C3.9106 28.1055 3.78174 28.2065 3.65149 28.3574C3.37512 28.678 3.17083 29.0949 2.94594 29.454C2.6345 29.9519 2.24291 30.4637 2.01524 31.0053C1.84296 31.415 1.9323 31.8119 2.08121 32.2071C1.48588 33.0151 1.0144 33.9436 0.642012 34.874C0.508974 35.2066 0.133797 36.4281 0.000482559 36.5987V36.9547C0.97683 37.4882 1.99437 37.9834 3.00467 38.4501L3.11655 38.4228C3.15468 38.3641 3.44748 37.257 3.50899 37.0735C3.71643 36.4492 3.9618 35.8381 4.24375 35.2436C5.82628 31.9511 8.53823 29.42 12.0014 28.211C15.4976 26.9904 19.8311 27.1953 23.1737 28.8077C23.4323 28.2305 23.6989 27.6505 24.0012 27.0947C24.2658 26.6081 24.5842 26.1282 24.7969 25.6171Z" fill="#F966AC"/>
<path d="M5.29588 28.1144C4.90623 27.9354 4.50433 27.8798 4.09353 28.0395C3.90678 28.1122 3.77792 28.2132 3.64767 28.3641C3.3713 28.6847 3.16701 29.1016 2.94212 29.4606C2.63068 29.9586 2.23909 30.4704 2.01142 31.012C1.83914 31.4217 1.92848 31.8186 2.07738 32.2138C2.20513 32.3616 2.33761 32.4854 2.4957 32.6006C2.9655 32.9424 3.57002 33.3265 4.1762 33.2163C4.64433 33.1314 4.95132 32.8606 5.21043 32.4818C5.41277 32.1862 5.58311 31.8673 5.77682 31.5653C6.07852 31.0952 6.54359 30.5622 6.70279 30.022C6.7604 29.8269 6.74871 29.6031 6.70696 29.4058C6.56112 28.7142 5.82942 28.4592 5.29588 28.1144Z" fill="#111111"/>
</g>
<defs>
<clipPath id="clip0_35_448">
<rect width="57" height="57" fill="white" transform="matrix(-1 0 0 1 57 0)"/>
</clipPath>
</defs>
</svg>
